<?xml version="1.0" encoding="UTF-8"?>
<svg width="600" height="600" version="1.1" viewBox="0 0 200 200" xmlns="http://www.w3.org/2000/svg" xmlns:cc="http://creativecommons.org/ns#" xmlns:dc="http://purl.org/dc/elements/1.1/" xmlns:rdf="http://www.w3.org/1999/02/22-rdf-syntax-ns#">
  <metadata>
    <rdf:RDF>
      <cc:Work rdf:about="">
        <dc:format>image/svg+xml</dc:format>
        <dc:type rdf:resource="http://purl.org/dc/dcmitype/StillImage"/>
        <dc:title/>
      </cc:Work>
    </rdf:RDF>
  </metadata>
  <g>
    <path transform="scale(.33333333)" d="m246.71452 277.64989c-1.73082-0.27335-4.47157-0.89518-6.09056-1.38183-3.63204-1.09176-11.47607-4.42824-12.45898-5.29947-0.399-0.35366-2.14157-1.55018-3.87238-2.65893-4.27143-2.73626-11.49614-10.04284-14.70046-14.86703-8.5488-12.87045-13.4649-30.18632-12.89902-45.43388 0.44015-11.8599 3.77083-22.17642 11.20902-34.71902 6.84197-11.53724 15.86396-23.01641 34.85487-44.34774 19.91539-22.36975 28.62077-34.099739 33.56646-45.228839 2.62765-5.912913 3.61433-10.266004 4.05872-17.906557 0.66247-11.389846 1.56032-14.791634 4.55573-17.2607 3.7895-3.123629 8.66138-2.609473 18.12939 1.913295 9.54424 4.559182 18.84548 10.881469 24.09913 16.380775 7.16881 7.50402 10.2716 13.783581 12.59504 25.490352 0.64097 3.229578 1.43996 6.290988 1.77553 6.80314 0.86693 1.323094 1.82475 1.595884 10.18221 2.899904 25.6077 3.99559 40.96654 11.65733 58.66744 29.26615 7.66858 7.62869 12.83939 14.53146 14.15164 18.89175 0.65903 2.18979 0.72855 4.90642 0.17641 6.89392-0.43939 1.58165-2.41235 3.66454-4.05927 4.28546-1.67565 0.63174-5.9512 0.50376-12.17182-0.36435-20.00304-2.79149-31.71571-3.68968-48.47942-3.71762-18.53104-0.0309-24.77529 0.68694-35.7964 4.11508-20.06822 6.24227-33.45551 13.50805-46.61398 25.29915-14.60628 13.08845-22.58892 29.38793-21.89724 44.71118 0.44618 9.88449 3.19933 15.63721 11.29551 23.60202 3.21101 3.1589 4.43703 5.24049 5.13576 8.71969 1.08534 5.40434-2.74536 10.8967-8.89192 12.74902-2.65704 0.80072-8.98959 1.7437-11.40764 1.69869-1.08176-0.0201-3.38296-0.26025-5.11377-0.53361zm10.6209-10.68312c1.73082-0.31594 3.37358-0.65239 3.6506-0.74766 0.72322-0.24874-0.3718-2.22714-4.24122-7.66271-6.39617-8.98504-9.31102-16.30455-10.27968-25.81346-0.70068-6.87821 0.47373-15.1143 3.20224-22.45718 3.45888-9.30843 10.5083-19.41907 19.60627-28.12032 9.19094-8.79017 19.06927-15.51828 33.05886-22.51632 17.82855-8.91841 23.6276-10.52414 40.75693-11.28544 13.61464-0.60509 39.27945 3.9e-4 52.71117 1.24366 2.37987 0.22028 7.48066 0.85628 11.33509 1.41333 3.85442 0.55706 7.10111 0.91977 7.21486 0.80602 0.44749-0.44749-0.38671-1.84551-3.21473-5.38751-6.95286-8.70819-13.04993-14.41232-21.23573-19.86714-11.70851-7.80228-23.17213-12.23091-37.0818-14.32548-10.12452-1.5246-14.33997-3.01241-17.57693-6.20365-2.82268-2.7828-3.59902-4.77427-6.06955-15.569613-0.96501-4.216756-2.16611-6.909133-4.93717-11.067106-7.93082-11.900176-21.8183-21.466936-31.16225-21.466936-1.13171 0-2.17768 0.19421-2.32438 0.431578-0.1467 0.237367-0.42337 3.290878-0.61482 6.785579-0.57581 10.511047-1.99454 16.133689-6.28794 24.920191-5.44392 11.141057-14.5226 23.234297-34.81716 46.378157-29.21504 33.31676-38.31911 46.77081-41.24981 60.95925-0.90199 4.36682-1.17405 12.12506-0.62671 17.87202 2.14097 22.48002 12.73217 41.10167 27.79075 48.86224 7.24029 3.73135 13.24907 4.48764 22.39311 2.8185z" fill="#f00" stroke-width="2.75357"/>
    <path transform="scale(.33333333)" d="m286.58353 548.88941c-1.86034-0.49384-5.08305-1.59018-7.16158-2.43631s-4.53891-1.82589-5.4675-2.17724c-5.51301-2.08594-14.58422-8.34609-19.1932-13.24547-5.56589-5.91657-9.38071-12.73418-12.52699-22.38749-0.95462-2.9289-2.08283-5.9488-2.50713-6.71089-1.03281-1.85504-3.3888-2.96342-8.70651-4.09602-2.32292-0.49475-6.28383-1.33783-8.80201-1.87351-22.00779-4.68159-38.93793-13.71112-54.00746-28.80436-5.51293-5.52161-9.12761-10.09711-11.47284-14.52248-1.47865-2.79018-1.55704-3.09524-1.55704-6.05981 0-2.75583 0.12023-3.32625 1.02581-4.86682 1.2873-2.18996 3.14819-3.19048 6.44383-3.4646 2.98444-0.24823 7.11315 0.17731 22.09485 2.27726 17.72488 2.48446 26.90926 2.86882 39.2969 1.64455 41.09899-4.06179 78.73224-25.55145 92.28864-52.69944 6.00132-12.01821 6.48676-27.15072 1.23558-38.51622-1.79462-3.88421-3.4074-6.10051-7.47988-10.27891-4.46792-4.58413-5.43635-6.36617-5.41623-9.96659 0.0109-1.9475 0.21819-2.95935 0.855-4.17325 5.41535-10.32268 26.88563-12.17072 42.65104-3.67114 12.00552 6.47251 21.9852 19.08659 27.39835 34.63084 4.88295 14.02176 6.57076 31.59092 4.02434 41.89131-1.41335 5.71709-5.15862 14.61748-9.11803 21.66839-6.3979 11.3934-18.90915 28.62738-33.86047 46.64212-9.29174 11.19555-10.77705 13.0457-15.3316 19.09756-10.57821 14.0558-16.58001 25.47058-18.48371 35.15399-0.36194 1.84105-0.71859 6.44693-0.90377 11.67176-0.36069 10.17616-0.71062 11.71672-3.18071 14.00285-1.65545 1.53215-2.61691 1.86841-5.78396 2.02288-2.32462 0.11339-3.70742-0.0505-6.35372-0.75296zm4.99272-10.50172c0.24263-0.8098 0.58599-4.40766 0.76303-7.99522 0.59664-12.09031 3.81089-22.21039 11.04888-34.78732 5.64517-9.80922 11.06977-16.99812 26.05123-34.52421 26.63599-31.16014 37.44197-48.05105 41.172-64.35627 1.08306-4.73442 1.33123-13.0703 0.54955-18.45934-0.68557-4.72645-2.52017-12.08993-4.25485-17.07763-4.78067-13.74575-13.74484-24.57578-24.78909-29.94885-5.35199-2.60376-8.23401-3.3259-14.18584-3.55453-5.4108-0.20784-8.60672 0.1713-11.93229 1.41555-1.76291 0.65959-1.97663 0.84725-1.75988 1.54524 0.44967 1.44808 2.66506 4.42088 6.06585 8.13969 5.59391 6.117 7.7488 10.03685 8.78256 15.97584 0.61648 3.54166 0.85445 16.71535 0.39948 22.1135-0.71299 8.45937-2.42374 13.74052-6.63701 20.48875-7.51101 12.03009-19.18123 24.11535-30.81692 31.9129-24.32577 16.30169-55.52331 24.13451-90.72147 22.77758-8.13582-0.31364-8.65339-0.35556-20.0547-1.6241-10.81502-1.20332-14.01266-1.41776-14.29634-0.95876-0.32591 0.52735 1.21656 3.46671 3.20559 6.10862 1.96287 2.60716 9.22695 9.75309 13.11069 12.89744 4.64974 3.76452 10.79575 7.78731 14.76475 9.66406 6.6259 3.13308 16.78668 6.16397 27.65387 8.24895 14.42403 2.76739 17.37121 3.65999 20.15513 6.1043 1.88821 1.65787 3.06911 4.16524 4.09038 8.68496 1.16677 5.16367 1.8365 7.12613 3.60414 10.56107 2.96107 5.75402 7.80463 11.69624 13.28355 16.29667 4.1884 3.51682 7.07174 5.3781 12.68079 8.18582 5.50934 2.75781 7.76206 3.57619 9.93943 3.61083 1.65714 0.0264 1.69401 1e-3 2.12749-1.44554z" fill="#f00" stroke-width="2.57083"/>
    <g stroke-width="5.47774">
      <path transform="scale(.33333333)" d="m193.9339 337.21626c-18.73433-4.16188-33.59003-12.31616-42.21778-23.17326-11.19542-14.08826-20.32016-32.93237-34.85392-71.97913-12.7702-34.30874-20.968601-46.70628-37.483018-56.68146-6.992093-4.22342-10.650683-7.7651-10.650683-10.31035 0-4.69763 4.277622-9.93121 14.205969-17.38071 7.032549-5.2767 15.031176-9.35122 21.786802-11.09826 6.38587-1.65142 17.31312-1.67316 24.90039-0.0495 10.38548 2.22242 10.67126 2.13633 17.35346-5.227 18.05105-19.89103 31.71238-29.70284 49.76406-35.74142 22.09966-7.392704 35.53887-6.07713 35.53887 3.47892 0 3.05351-2.79624 7.45487-13.09687 20.61483-13.54003 17.29859-19.76829 27.84444-25.47845 43.14076-10.81739 28.97748-12.09686 61.60981-3.32903 84.90491 8.81463 23.41944 31.82015 37.9031 50.97475 32.09235 2.11277-0.64093 5.54929-1.16914 7.6367-1.1738 3.25839-7e-3 4.16174 0.35798 6.38569 2.58194 5.31973 5.31973 4.19172 15.44776-2.90169 26.05329-6.41271 9.58779-14.94216 15.82614-26.29356 19.23085-7.75806 2.32691-23.42651 2.67539-32.24169 0.71708zm26.46823-9.08962c15.39821-3.63012 25.87197-13.59801 29.37858-27.95964 0.51319-2.10183 0.44499-2.15197-2.92717-2.15197-1.89894 0-6.20293 0.56878-9.56445 1.26396-3.71811 0.76892-7.64769 1.08206-10.03329 0.79952-6.42024-0.76038-23.14416-9.60131-30.9743-16.37424-8.10297-7.00892-15.82561-23.29562-19.67467-41.49296-2.41603-11.42241-2.41314-30.14396 7e-3 -43.18679 4.80306-25.88853 16.46816-50.31785 38.05673-79.69926 2.798-3.80798 5.08727-7.46849 5.08727-8.13446 0-3.28613-19.74858 1.50201-33.25768 8.06349-8.85286 4.2999-18.12377 12.24539-29.34502 25.14967-12.18904 14.01725-14.62651 15.18753-24.91516 11.96237-13.91709-4.36255-34.338049 0.46554-48.1041 11.37317-6.084858 4.82138-5.87332 5.80595 2.451497 11.41022 12.717164 8.56121 21.861833 19.94484 30.155943 37.53928 4.26872 9.05531 4.9651 10.84961 14.25186 36.72161 18.73945 52.20627 31.99523 67.92737 62.93905 74.64448 6.85649 1.48837 20.30415 1.52472 26.46823 0.0715z" fill="#ff0"/>
      <path transform="scale(.33333333)" d="m77.727637 429.93615c-5.447989-2.3448-8.463104-12.72001-8.546534-29.4092-0.05262-10.52625 0.102886-11.79887 2.150558-17.59949 2.774258-7.85889 6.097098-13.3033 12.615529-20.6703 6.273856-7.09059 6.333377-7.70909 2.023279-21.02477-7.78445-24.04939-8.776367-42.05489-3.456367-62.74079 5.109426-19.86714 14.028272-29.0449 21.020608-21.63086 1.7184 1.82203 4.44408 7.34102 8.59902 17.41137 12.30512 29.824 19.81509 41.5985 37.78631 59.24321 9.67388 9.49812 20.36412 17.10067 32.66712 23.2318 28.47869 14.19219 53.49803 13.33103 70.337-2.421 5.40303-5.05427 8.28164-9.75083 10.2928-16.79313 2.50693-8.77823 4.9786-11.34674 10.91896-11.34674 8.25658 0 18.32826 11.51262 21.93793 25.07656 1.46675 5.51156 1.4493 16.22289-0.0367 22.52625-1.46131 6.19865-5.42551 14.85105-9.78431 21.35554-7.06704 10.54591-23.22827 24.16406-34.69422 29.23484-6.78259 2.99958-16.42787 4.40184-30.23606 4.39579-14.85168-6e-3 -28.32333-1.42893-56.34243-5.94907-27.60767-4.45376-39.61076-5.51555-49.80906-4.40609-9.2287 1.00398-14.43706 2.69892-24.002007 7.81093-8.502359 4.54411-10.324918 5.04649-13.441442 3.70515zm12.097831-13.35146c19.771352-9.92977 36.805492-10.43104 80.629762-2.37268 31.84928 5.85641 55.15377 7.43109 68.66716 4.63982 11.66241-2.40894 21.43959-8.23244 31.36577-18.68211 15.05277-15.84666 20.38617-32.95153 15.41896-49.45046-1.42594-4.73635-6.81067-13.11628-9.60448-14.94686-1.82378-1.19498-2.02521-1.19-2.94864 0.0729-0.54512 0.7455-2.11696 4.57948-3.49296 8.51996-1.37601 3.94048-3.54888 8.68634-4.82861 10.54636-2.83951 4.12708-10.73661 9.77801-21.11392 15.10846-9.87412 5.07199-16.49303 6.55563-26.11733 5.85423-27.15691-1.97913-50.70816-12.92613-72.14472-33.53402-18.60459-17.8854-27.32244-31.29493-44.7494-68.8322-1.835587-3.95381-3.546851-6.6877-4.007807-6.40281-2.94811 1.82203-7.22233 16.536-8.646826 29.76664-1.299034 12.06535 0.841923 24.45908 7.466216 43.22096 5.586137 15.82155 5.412587 17.28123-3.094101 26.02265-10.108433 10.38738-14.099742 21.13538-14.086514 37.93287 0.0083 10.58142 1.090298 16.04194 3.178601 16.04194 0.620813 0 4.26979-1.57753 8.108839-3.50561z" fill="#f60"/>
      <path transform="scale(.33333333)" d="m473.41677 341.95779c-1.14107-1.2247-3.269-5.18628-4.72874-8.8035-11.40113-28.25194-23.69309-51.48934-34.08727-64.44045-12.2368-15.24701-34.14078-30.51443-52.85877-36.84341-17.1282-5.79143-34.43378-5.48279-47.48229 0.84683-9.69735 4.70403-15.28355 11.50745-18.09384 22.03644-0.82898 3.10586-2.10285 6.55603-2.83082 7.66706-3.00644 4.58841-9.70329 6.40365-14.49088 3.9279-4.98494-2.57782-10.96568-11.21043-13.5718-19.58959-2.66417-8.56576-3.02199-19.36076-0.94104-28.39002 5.059-21.95106 27.18566-44.55547 50.11166-51.19366 5.59103-1.61887 7.82886-1.79909 22.25793-1.79251 18.11525 8e-3 21.12649 0.39786 54.3861 7.03673 28.30454 5.6498 37.24897 6.91168 49.29963 6.95519 12.51244 0.0452 16.28484-0.81492 27.62914-6.29939 12.77046-6.17395 17.22973-5.75425 20.74198 1.95219 1.43306 3.14437 1.70319 5.44286 1.94654 16.56285 0.3241 14.81001-0.68285 21.34914-4.565 29.6451-3.13828 6.70636-7.35528 12.09419-13.24581 16.92346-2.61963 2.14767-4.95013 4.62159-5.17888 5.49758-0.23351 0.89425 1.15599 5.79484 3.16843 11.17463 6.07928 16.25158 7.04239 21.2395 7.05391 36.53228 0.011 14.51889-0.78985 19.71903-5.14407 33.40373-2.86614 9.00781-6.3739 15.17726-10.02412 17.63036-3.6667 2.46418-6.78288 2.31763-9.35199-0.4398zm10.14232-18.95688c7.61695-21.62421 7.15612-43.2401-1.3779-64.63333-3.55907-8.92194-4.20573-15.19642-2.00713-19.47496 0.87304-1.69896 4.22731-5.58393 7.45394-8.63326 6.72256-6.35318 10.64377-13.18302 13.11403-22.84163 2.81403-11.00277 1.28769-27.48031-2.61308-28.20954-0.76141-0.14234-4.28281 1.1757-7.82534 2.92897-9.63926 4.77066-16.94339 6.3673-29.13444 6.36859-12.8715 1e-3 -23.26811-1.37342-50.55149-6.68468-33.52758-6.52681-42.35637-7.74789-55.8731-7.72764-10.55177 0.0158-12.37066 0.22615-17.99828 2.08139-16.06747 5.29692-33.08283 20.44529-40.26266 35.84487-5.36532 11.50774-6.22077 24.19546-2.21667 32.87669 1.97085 4.27295 7.94918 12.4269 9.11119 12.4269 0.34963 0 2.69019-4.0987 5.20126-9.10823 3.72376-7.42879 5.58716-10.13719 10.10597-14.68873 9.91102-9.98279 21.81489-14.61497 37.62426-14.64081 19.25323-0.0315 38.955 7.04578 61.423 22.06431 16.76912 11.20916 22.42034 17.75569 36.42618 42.19707 7.73295 13.49465 16.56432 30.7131 19.86746 38.73542 1.4177 3.44315 3.07448 7.46707 3.68172 8.94206 0.75915 1.84393 1.35648 2.42938 1.91197 1.8739 0.44433-0.44433 2.21693-4.80815 3.93911-9.69736z" fill="#f60"/>
      <path transform="scale(.33333333)" d="m348.03726 481.92893c-7.36308-3.89259-6.97225-5.57542 5.1113-22.00849 34.82292-47.35758 42.08857-66.01988 40.89792-105.04902-0.34117-11.18322-0.74517-14.62824-2.41871-20.62479-3.74956-13.43531-9.11897-22.93076-17.42142-30.80865-10.24271-9.71893-20.86698-12.80433-33.54738-9.74253-6.06703 1.46494-10.09029 1.47471-12.88157 0.0313-6.30968-3.26286-7.34888-10.3059-2.89215-19.60105 6.24608-13.02709 20.89694-23.54631 37.11695-26.64971 21.27053-4.06972 49.04571 4.93095 63.74313 20.65626 7.25338 7.76065 16.63038 24.13979 22.70778 39.66448 1.51637 3.87354 5.29875 14.43774 8.4053 23.47601 17.45523 50.78461 22.12201 59.12275 40.30386 72.01092 8.40978 5.96125 9.78512 7.66688 9.78512 12.13495 0 2.82806-0.48737 3.69551-4.1083 7.31219-2.25957 2.2569-7.45363 6.09728-11.54237 8.53416-17.94733 10.69659-30.01085 12.76854-46.37654 7.96534-10.12158-2.9706-9.49013-3.21156-19.05292 7.27053-12.92548 14.16803-20.47621 20.41116-31.26502 25.85069-10.85916 5.475-31.38368 11.1679-39.98058 11.08944-2.14389-0.0196-5.00345-0.67622-6.5844-1.51201zm18.16769-8.64949c14.20014-2.89381 25.69763-7.97271 36.27419-16.02375 5.03727-3.83445 10.57248-9.26961 21.32211-20.93675 7.07083-7.67434 11.54326-8.9745 20.66936-6.00868 6.20602 2.01685 16.6152 2.74722 23.60038 1.65593 7.82631-1.22268 21.93812-8.16648 25.82485-12.70726 1.71721-2.00616 2.84662-4.08497 2.71417-4.99574-0.13062-0.89826-2.38416-3.04242-5.31329-5.05539-7.52085-5.16851-16.26123-14.41616-20.56139-21.7547-5.6755-9.68567-9.89365-19.80349-19.42338-46.58971-10.16609-28.57488-14.72639-40.38045-18.50717-47.91073-9.38866-18.69968-19.45195-27.42282-39.38707-34.1418-6.48727-2.18649-8.68792-2.53089-18.3409-2.87034-9.37449-0.32967-11.90361-0.14943-17.3973 1.23981-3.5355 0.89405-8.05947 2.58155-10.05327 3.74999-7.50098 4.39587-14.16236 13.01005-15.84217 20.48635l-0.74041 3.29529h11.22504c13.10009 0 17.5179 0.77795 25.00574 4.40333 17.14507 8.30114 28.3133 25.09915 33.55316 50.46696 2.656 12.8585 2.30977 38.65397-0.71571 53.32358-2.5827 12.52274-22.27834 47.48468-41.20851 73.14969-2.93293 3.97639-5.3326 7.58583-5.3326 8.02097 0 1.20801 4.04847 0.9526 12.63417-0.79705z" fill="#ff0"/>
      <path transform="scale(.33333333)" d="m267.88334 592.5504c-29.11469-16.22639-87.87133-50.33564-193.677105-112.43293l-45.778223-26.86718-0.395148-308.28158 6.066577-3.5552c3.336617-1.95537 39.695964-23.27757 80.798549-47.382664 116.05056-68.05922 160.79337-93.74006763 165.68158-95.0955872 2.15043-0.5963215 3.97187-0.5594653 6.69311 0.13543241 2.95127 0.75363938 3.9829 0.75201445 4.89833-0.007716 1.82447-1.51417971 7.0385-0.40552271 13.19394 2.80542259 13.57716 7.0824409 79.95758 45.5847822 198.25861 114.9950722l47.93214 28.12303-0.19758 154.11956-0.19757 154.11956-50.47343 29.62176c-114.78476 67.36469-181.36247 105.96102-195.56338 113.37172-5.69166 2.97018-6.69052 3.24677-10.21706 2.8291-2.67528-0.31685-4.59245-0.10625-6.0756 0.66741-1.19181 0.62169-3.04729 1.12828-4.12327 1.12577-1.07598-2e-3 -8.647-3.73345-16.82447-8.29098zm27.15555-13.914c5.14312-3.58824 42.75105-25.84622 162.02198-95.89155l71.01493-41.70559-0.0295-142.13578-0.0295-142.13579-85.39892-50.08215c-94.31944-55.31364-142.00658-83.507558-148.46037-87.773796-4.1178-2.722039-4.30488-2.767144-6.26027-1.50927-9.39086 6.041013-83.73268 49.912795-203.715536 120.219856l-32.67262 19.14536 0.19747 142.32773 0.19747 142.32772 40.691754 23.86641c22.380462 13.12652 73.440792 43.04806 113.467392 66.49229 40.0266 23.44424 75.24062 44.31041 78.25337 46.36926 3.01276 2.05886 5.5489 3.78394 5.63588 3.83353 0.087 0.0496 2.37589-1.45712 5.08647-3.34823z" fill="#0ff"/>
    </g>
  </g>
</svg>
